<?xml version="1.0" encoding="UTF-8" ?>
<!DOCTYPE svg PUBLIC "-//W3C//DTD SVG 1.1//EN" "http://www.w3.org/Graphics/SVG/1.1/DTD/svg11.dtd">
	<svg width="300pt" height="300pt" viewBox="0 0 300 300" version="1.1" xmlns="http://www.w3.org/2000/svg">
<!--
	<path fill="#ffffff" d=" M 0.00 0.00 L 300.00 0.00 L 300.00 300.00 L 0.00 300.00 L 0.00 0.00 Z" />
-->
	<path fill="#000000" d=" M 246.02 45.02 C 258.79 33.82 272.59 23.67 287.75 15.94 C 286.54 35.64 282.64 55.19 283.40 74.99 C 283.80 88.51 286.77 101.96 292.22 114.34 C 290.80 114.97 289.32 115.47 287.81 115.84 C 271.15 122.44 257.32 134.37 244.27 146.34 C 233.30 155.98 223.44 166.81 213.49 177.49 C 198.31 194.43 183.92 212.09 170.43 230.41 C 163.79 239.68 156.93 248.84 151.23 258.73 C 150.54 259.81 149.84 260.88 149.16 261.97 C 146.51 265.74 144.34 269.80 141.98 273.75 C 138.68 269.79 135.66 265.56 131.93 261.98 C 114.01 240.99 94.07 221.60 71.89 205.13 C 62.21 197.83 52.09 191.02 41.13 185.77 C 37.03 182.99 32.17 181.73 27.91 179.27 C 52.70 164.57 77.26 149.44 101.93 134.53 C 102.51 136.12 103.19 137.67 103.97 139.18 C 111.93 154.46 119.82 169.79 127.71 185.11 C 129.23 188.04 130.72 190.98 132.27 193.89 C 134.03 197.29 135.81 200.69 137.56 204.10 C 156.43 161.72 179.76 121.11 208.78 84.85 C 219.88 70.40 232.65 57.36 246.02 45.02 Z" />
</svg>
